<svg width="44" height="45" viewBox="0 0 44 45" fill="none" xmlns="http://www.w3.org/2000/svg">
<path d="M43.952 22.4072C43.952 25.3885 43.38 28.1965 42.236 30.8312C41.1267 33.4312 39.584 35.7192 37.608 37.6952C35.632 39.6712 33.344 41.2312 30.744 42.3752C28.1093 43.4845 25.3013 44.0392 22.32 44.0392C19.3387 44.0392 16.548 43.4845 13.948 42.3752C11.3133 41.2312 9.008 39.6712 7.032 37.6952C5.056 35.7192 3.51333 33.4312 2.404 30.8312C1.26 28.1965 0.687998 25.3885 0.687998 22.4072C0.687998 19.4258 1.26 16.6352 2.404 14.0352C3.51333 11.4005 5.056 9.09517 7.032 7.11917C9.008 5.14317 11.3133 3.6005 13.948 2.49117C16.548 1.34717 19.3387 0.775168 22.32 0.775168C25.3013 0.775168 28.1093 1.34717 30.744 2.49117C33.344 3.6005 35.632 5.14317 37.608 7.11917C39.584 9.09517 41.1267 11.4005 42.236 14.0352C43.38 16.6352 43.952 19.4258 43.952 22.4072ZM34.488 29.5312V23.4992H28.508V32.7552L23.048 29.5832L24.4 27.2432L23.724 26.8792L18.368 30.3632L17.952 36.7592L18.68 37.2272L20.084 34.8352L22.684 36.2912C22.996 36.4645 23.308 36.6032 23.62 36.7072C23.932 36.7765 24.2613 36.8112 24.608 36.8112C24.9893 36.8112 25.388 36.7592 25.804 36.6552C26.1853 36.5512 26.5667 36.3952 26.948 36.1872L32.2 33.1712C32.8587 32.7898 33.4133 32.2698 33.864 31.6112C34.28 30.9525 34.488 30.2592 34.488 29.5312ZM37.244 19.3392V18.5072H34.488V15.4392C34.488 14.7112 34.28 14.0352 33.864 13.4112C33.448 12.7525 32.9107 12.2325 32.252 11.8512L26.948 8.83517C26.5667 8.62717 26.1853 8.47117 25.804 8.36717C25.388 8.2285 24.9893 8.15917 24.608 8.15917C24.2613 8.15917 23.932 8.21117 23.62 8.31517C23.308 8.3845 23.0133 8.50584 22.736 8.67917L17.484 11.6432L20.5 16.8432L28.508 12.2672V18.5072H25.752V19.3392L31.524 22.1992L37.244 19.3392ZM18.576 27.0872L10.568 22.4592L16.028 19.3392L17.432 21.7312L18.16 21.3152L17.744 14.9192L12.388 11.3832L11.712 11.7992L13.064 14.1912L10.36 15.6992C9.70133 16.0458 9.19866 16.5658 8.852 17.2592C8.50533 17.9178 8.332 18.6458 8.332 19.4432V25.5272C8.332 26.2898 8.50533 27.0178 8.852 27.7112C9.19866 28.4045 9.70133 28.9418 10.36 29.3232L15.612 32.2872L18.576 27.0872Z" fill="black"/>
</svg>
